<svg id="Layer_1" data-name="Layer 1" xmlns="http://www.w3.org/2000/svg" viewBox="0 0 100 100"><defs><style>.cls-1{fill:none;stroke:#94d2bd;stroke-miterlimit:10;stroke-width:5px;}.cls-2{fill:#94d2bd;}</style></defs><path class="cls-1" d="M90,49.65l-6.81-5,5.36-7.22C84,33.69,75.23,31.92,66.22,32.7c-1.08-11.52-4.51-21-9.92-25L50,14,43.7,7.7c-5.41,4-8.84,13.48-9.92,25-9-.78-17.77,1-22.37,4.68l5.36,7.22-6.81,5c2.82,4.39,8.58,8.54,16,11.32C20.76,70.75,19,80.85,21.68,87l8.39-3.16,3.19,8.44C38.46,91.11,44.5,87.08,50,80.74c5.5,6.34,11.54,10.37,16.74,11.56l3.19-8.44L78.32,87c2.67-6.17.92-16.27-4.26-26C81.46,58.19,87.22,54,90,49.65Z"/><path class="cls-2" d="M38.18,66.27c0-1.89,1.13-3.41,3.22-4.58v-.18a4.41,4.41,0,0,1-2.07-3.86,5.55,5.55,0,0,1,2.53-4.26v-.18a7.28,7.28,0,0,1-3-5.9c0-5.45,4.51-8.22,9.4-8.22a11.06,11.06,0,0,1,3.52.55H60v4.91H56.39a6,6,0,0,1,.77,3c0,5.23-4,7.64-8.95,7.64a9.74,9.74,0,0,1-2.77-.44,1.91,1.91,0,0,0-.79,1.69c0,1.12.91,1.66,3.39,1.66h3.69c5.57,0,8.68,1.71,8.68,5.78,0,4.72-4.92,8.16-12.72,8.16C42.4,72,38.18,70.31,38.18,66.27ZM54,65c0-1.44-1.23-1.76-3.46-1.76H48.14A12,12,0,0,1,45,63a2.9,2.9,0,0,0-1.23,2.23c0,1.73,2,2.61,5,2.61S54,66.59,54,65ZM51.31,47.31c0-2.42-1.31-3.69-3.1-3.69s-3.1,1.26-3.1,3.69,1.33,3.79,3.1,3.79S51.31,49.8,51.31,47.31Z"/></svg>