<?xml version="1.0" encoding="utf-8"?>
<!-- Generator: Adobe Illustrator 25.2.1, SVG Export Plug-In . SVG Version: 6.00 Build 0)  -->
<svg version="1.1" id="Layer_1" xmlns="http://www.w3.org/2000/svg" xmlns:xlink="http://www.w3.org/1999/xlink" x="0px" y="0px"
	 viewBox="0 0 100 100" style="enable-background:new 0 0 100 100;" xml:space="preserve">
<style type="text/css">
	.st0{fill:none;stroke:#FF8C00;stroke-width:5;stroke-miterlimit:10;}
	.st1{fill:#FF8C00;}
</style>
<path class="st0" d="M90,49.6l-6.8-5.1l5.4-7.2c-4.6-3.7-13.4-5.5-22.4-4.7c-1.1-11.5-4.5-21-9.9-25L50,14l-6.3-6.3
	c-5.4,4-8.8,13.5-9.9,25c-9-0.8-17.8,1-22.4,4.7l5.4,7.2L10,49.6c2.8,4.4,8.6,8.5,16,11.3C20.8,70.8,19,80.9,21.7,87l8.4-3.2
	l3.2,8.4c5.2-1.2,11.2-5.2,16.7-11.6c5.5,6.3,11.5,10.4,16.7,11.6l3.2-8.4l8.4,3.2c2.7-6.2,0.9-16.3-4.3-26.1
	C81.5,58.2,87.2,54,90,49.6z"/>
<g>
	<g>
		<g>
			<path class="st1" d="M38.2,66.3c0-1.9,1.1-3.4,3.2-4.6v-0.2c-1.2-0.8-2.1-2-2.1-3.9c0-1.6,1.1-3.2,2.5-4.3v-0.2
				c-1.6-1.1-3.1-3.2-3.1-5.9c0-5.5,4.5-8.2,9.4-8.2c1.3,0,2.5,0.2,3.5,0.5H60v4.9h-3.7c0.4,0.7,0.8,1.8,0.8,3c0,5.2-4,7.6-8.9,7.6
				c-0.8,0-1.8-0.1-2.8-0.4c-0.6,0.5-0.8,0.9-0.8,1.7c0,1.1,0.9,1.7,3.4,1.7h3.7c5.6,0,8.7,1.7,8.7,5.8c0,4.7-4.9,8.2-12.7,8.2
				C42.4,72,38.2,70.3,38.2,66.3z M54,65c0-1.4-1.2-1.8-3.5-1.8h-2.4c-1.6,0-2.4-0.1-3.2-0.3c-0.8,0.7-1.2,1.4-1.2,2.2
				c0,1.7,2,2.6,5,2.6C51.8,67.8,54,66.6,54,65z M51.3,47.3c0-2.4-1.3-3.7-3.1-3.7c-1.8,0-3.1,1.3-3.1,3.7c0,2.5,1.3,3.8,3.1,3.8
				S51.3,49.8,51.3,47.3z"/>
		</g>
	</g>
</g>
</svg>
